<mxfile host="65bd71144e">
    <diagram id="C5RBs43oDa-KdzZeNtuy" name="Page-1">
        <mxGraphModel dx="1474" dy="486" grid="1" gridSize="10" guides="1" tooltips="1" connect="1" arrows="1" fold="1" page="1" pageScale="1" pageWidth="827" pageHeight="1169" math="0" shadow="0">
            <root>
                <mxCell id="WIyWlLk6GJQsqaUBKTNV-0"/>
                <mxCell id="WIyWlLk6GJQsqaUBKTNV-1" parent="WIyWlLk6GJQsqaUBKTNV-0"/>
                <mxCell id="zkfFHV4jXpPFQw0GAbJ--0" value="IDeviceFactory" style="swimlane;fontStyle=2;align=center;verticalAlign=top;childLayout=stackLayout;horizontal=1;startSize=26;horizontalStack=0;resizeParent=1;resizeLast=0;collapsible=1;marginBottom=0;rounded=0;shadow=0;strokeWidth=1;" parent="WIyWlLk6GJQsqaUBKTNV-1" vertex="1">
                    <mxGeometry x="260" y="80" width="160" height="52" as="geometry">
                        <mxRectangle x="260" y="80" width="160" height="26" as="alternateBounds"/>
                    </mxGeometry>
                </mxCell>
                <mxCell id="zkfFHV4jXpPFQw0GAbJ--1" value="+ create_device()" style="text;align=left;verticalAlign=top;spacingLeft=4;spacingRight=4;overflow=hidden;rotatable=0;points=[[0,0.5],[1,0.5]];portConstraint=eastwest;" parent="zkfFHV4jXpPFQw0GAbJ--0" vertex="1">
                    <mxGeometry y="26" width="160" height="26" as="geometry"/>
                </mxCell>
                <mxCell id="zkfFHV4jXpPFQw0GAbJ--6" value="OriginalRefurbishedDeviceFactory" style="swimlane;fontStyle=0;align=center;verticalAlign=top;childLayout=stackLayout;horizontal=1;startSize=26;horizontalStack=0;resizeParent=1;resizeLast=0;collapsible=1;marginBottom=0;rounded=0;shadow=0;strokeWidth=1;" parent="WIyWlLk6GJQsqaUBKTNV-1" vertex="1">
                    <mxGeometry x="120" y="210" width="210" height="52" as="geometry">
                        <mxRectangle x="130" y="210" width="160" height="26" as="alternateBounds"/>
                    </mxGeometry>
                </mxCell>
                <mxCell id="zkfFHV4jXpPFQw0GAbJ--7" value="+ create_device()" style="text;align=left;verticalAlign=top;spacingLeft=4;spacingRight=4;overflow=hidden;rotatable=0;points=[[0,0.5],[1,0.5]];portConstraint=eastwest;" parent="zkfFHV4jXpPFQw0GAbJ--6" vertex="1">
                    <mxGeometry y="26" width="210" height="26" as="geometry"/>
                </mxCell>
                <mxCell id="zkfFHV4jXpPFQw0GAbJ--12" value="" style="endArrow=block;endSize=10;endFill=0;shadow=0;strokeWidth=1;rounded=0;edgeStyle=elbowEdgeStyle;elbow=vertical;" parent="WIyWlLk6GJQsqaUBKTNV-1" source="zkfFHV4jXpPFQw0GAbJ--6" target="zkfFHV4jXpPFQw0GAbJ--0" edge="1">
                    <mxGeometry width="160" relative="1" as="geometry">
                        <mxPoint x="240" y="53" as="sourcePoint"/>
                        <mxPoint x="240" y="53" as="targetPoint"/>
                    </mxGeometry>
                </mxCell>
                <mxCell id="zkfFHV4jXpPFQw0GAbJ--13" value="ReplicaDeviceFactory" style="swimlane;fontStyle=0;align=center;verticalAlign=top;childLayout=stackLayout;horizontal=1;startSize=26;horizontalStack=0;resizeParent=1;resizeLast=0;collapsible=1;marginBottom=0;rounded=0;shadow=0;strokeWidth=1;" parent="WIyWlLk6GJQsqaUBKTNV-1" vertex="1">
                    <mxGeometry x="370" y="210" width="210" height="50" as="geometry">
                        <mxRectangle x="370" y="210" width="170" height="26" as="alternateBounds"/>
                    </mxGeometry>
                </mxCell>
                <mxCell id="zkfFHV4jXpPFQw0GAbJ--14" value="+ create_device()" style="text;align=left;verticalAlign=top;spacingLeft=4;spacingRight=4;overflow=hidden;rotatable=0;points=[[0,0.5],[1,0.5]];portConstraint=eastwest;" parent="zkfFHV4jXpPFQw0GAbJ--13" vertex="1">
                    <mxGeometry y="26" width="210" height="24" as="geometry"/>
                </mxCell>
                <mxCell id="zkfFHV4jXpPFQw0GAbJ--16" value="" style="endArrow=block;endSize=10;endFill=0;shadow=0;strokeWidth=1;rounded=0;edgeStyle=elbowEdgeStyle;elbow=vertical;" parent="WIyWlLk6GJQsqaUBKTNV-1" source="zkfFHV4jXpPFQw0GAbJ--13" target="zkfFHV4jXpPFQw0GAbJ--0" edge="1">
                    <mxGeometry width="160" relative="1" as="geometry">
                        <mxPoint x="250" y="223" as="sourcePoint"/>
                        <mxPoint x="350" y="121" as="targetPoint"/>
                    </mxGeometry>
                </mxCell>
                <mxCell id="P40KVxYtF2gIWln2jsIA-1" value="ReplicaDevice" style="swimlane;fontStyle=0;align=center;verticalAlign=top;childLayout=stackLayout;horizontal=1;startSize=26;horizontalStack=0;resizeParent=1;resizeLast=0;collapsible=1;marginBottom=0;rounded=0;shadow=0;strokeWidth=1;" parent="WIyWlLk6GJQsqaUBKTNV-1" vertex="1">
                    <mxGeometry x="720" y="210" width="120" height="50" as="geometry">
                        <mxRectangle x="700" y="210" width="170" height="26" as="alternateBounds"/>
                    </mxGeometry>
                </mxCell>
                <mxCell id="P40KVxYtF2gIWln2jsIA-2" value="+ __str__()" style="text;align=left;verticalAlign=top;spacingLeft=4;spacingRight=4;overflow=hidden;rotatable=0;points=[[0,0.5],[1,0.5]];portConstraint=eastwest;" parent="P40KVxYtF2gIWln2jsIA-1" vertex="1">
                    <mxGeometry y="26" width="120" height="24" as="geometry"/>
                </mxCell>
                <mxCell id="P40KVxYtF2gIWln2jsIA-4" value="" style="endArrow=classic;html=1;rounded=0;entryX=0;entryY=0.5;entryDx=0;entryDy=0;exitX=1;exitY=0.5;exitDx=0;exitDy=0;dashed=1;" parent="WIyWlLk6GJQsqaUBKTNV-1" source="zkfFHV4jXpPFQw0GAbJ--14" target="P40KVxYtF2gIWln2jsIA-2" edge="1">
                    <mxGeometry width="50" height="50" relative="1" as="geometry">
                        <mxPoint x="590" y="220" as="sourcePoint"/>
                        <mxPoint x="590" y="200" as="targetPoint"/>
                    </mxGeometry>
                </mxCell>
                <mxCell id="P40KVxYtF2gIWln2jsIA-5" value="&lt;font style=&quot;font-size: 14px;&quot;&gt;&amp;lt;&amp;lt;create&amp;gt;&amp;gt;&lt;/font&gt;" style="edgeLabel;html=1;align=center;verticalAlign=middle;resizable=0;points=[];" parent="P40KVxYtF2gIWln2jsIA-4" vertex="1" connectable="0">
                    <mxGeometry y="2" relative="1" as="geometry">
                        <mxPoint y="-12" as="offset"/>
                    </mxGeometry>
                </mxCell>
                <mxCell id="P40KVxYtF2gIWln2jsIA-6" value="ReplicaDevice" style="swimlane;fontStyle=0;align=center;verticalAlign=top;childLayout=stackLayout;horizontal=1;startSize=26;horizontalStack=0;resizeParent=1;resizeLast=0;collapsible=1;marginBottom=0;rounded=0;shadow=0;strokeWidth=1;" parent="WIyWlLk6GJQsqaUBKTNV-1" vertex="1">
                    <mxGeometry x="-140" y="212" width="120" height="50" as="geometry">
                        <mxRectangle x="-200" y="211" width="170" height="26" as="alternateBounds"/>
                    </mxGeometry>
                </mxCell>
                <mxCell id="P40KVxYtF2gIWln2jsIA-7" value="+ __str__()" style="text;align=left;verticalAlign=top;spacingLeft=4;spacingRight=4;overflow=hidden;rotatable=0;points=[[0,0.5],[1,0.5]];portConstraint=eastwest;" parent="P40KVxYtF2gIWln2jsIA-6" vertex="1">
                    <mxGeometry y="26" width="120" height="24" as="geometry"/>
                </mxCell>
                <mxCell id="P40KVxYtF2gIWln2jsIA-8" value="" style="endArrow=classic;html=1;rounded=0;entryX=1;entryY=0.5;entryDx=0;entryDy=0;exitX=0;exitY=0.5;exitDx=0;exitDy=0;dashed=1;" parent="WIyWlLk6GJQsqaUBKTNV-1" source="zkfFHV4jXpPFQw0GAbJ--7" target="P40KVxYtF2gIWln2jsIA-7" edge="1">
                    <mxGeometry width="50" height="50" relative="1" as="geometry">
                        <mxPoint x="80" y="310" as="sourcePoint"/>
                        <mxPoint x="210" y="310" as="targetPoint"/>
                    </mxGeometry>
                </mxCell>
                <mxCell id="P40KVxYtF2gIWln2jsIA-9" value="&lt;font style=&quot;font-size: 14px;&quot;&gt;&amp;lt;&amp;lt;create&amp;gt;&amp;gt;&lt;/font&gt;" style="edgeLabel;html=1;align=center;verticalAlign=middle;resizable=0;points=[];" parent="P40KVxYtF2gIWln2jsIA-8" vertex="1" connectable="0">
                    <mxGeometry y="2" relative="1" as="geometry">
                        <mxPoint y="-16" as="offset"/>
                    </mxGeometry>
                </mxCell>
            </root>
        </mxGraphModel>
    </diagram>
</mxfile>
